<svg width="152" height="184" viewBox="0 0 152 184" fill="none" xmlns="http://www.w3.org/2000/svg">
<path d="M4.54858 15.3617C1.94939 11.8043 0 6.95319 0 4.52766C0 2.0271 2.0271 0 4.52765 0H106.107C109.411 0 112.09 2.67867 112.09 5.98298C112.09 9.37873 110.628 17.1404 108.679 23.4468C105.592 33.3106 103.805 36.0596 94.3831 45.2766C88.5349 51.0979 74.2394 62.417 62.7055 70.3404C51.1716 78.4255 39.6376 87.3191 37.2009 90.0681C34.6017 92.9787 31.8401 98.1532 30.8654 101.387C30.0531 104.783 29.7282 110.119 30.2156 113.191C30.8654 116.264 32.6523 120.791 34.2768 123.217C36.0638 125.804 39.4752 128.877 42.2368 130.17C44.9985 131.464 50.1969 132.596 54.0956 132.596C57.832 132.596 63.5177 131.302 66.6042 129.685C69.6908 128.23 73.5896 124.349 75.3765 121.277C77.8132 116.911 78.7879 111.089 79.6002 95.4043C80.4124 78.7489 81.3871 73.5745 84.6361 66.2979C86.9104 61.4468 91.2966 54.4936 94.5455 50.9362C97.6321 47.3787 104.293 42.5277 109.004 40.1021C113.877 37.6766 121.512 34.9277 125.898 34.1191C131.097 32.9872 137.432 32.9872 143.768 34.1191C149.129 34.9277 157.901 37.6766 163.099 40.1021C168.46 42.5277 175.283 47.3787 178.369 50.9362C181.618 54.4936 185.68 60.6383 187.304 64.6809C189.903 70.3404 190.391 74.383 189.741 83.2766C189.254 90.2298 187.467 97.9915 185.03 103.328C182.431 109.311 177.882 114.97 171.222 121.115C165.698 126.128 154.489 134.213 146.204 139.064C138.082 143.915 128.497 151.03 124.924 154.749C121.512 158.63 118.913 162.349 119.4 163.319C119.888 164.289 130.284 164.936 145.392 164.936C166.673 164.936 171.547 165.421 176.745 168.009C179.994 169.626 184.218 173.021 185.842 175.609C190.517 182.377 182.49 190 174.264 190H84.4419C80.4487 190 77.2368 186.716 77.3259 182.723C77.4883 178.519 79.4377 171.404 82.1994 165.745C84.6361 160.409 89.3472 153.132 92.5961 149.736C95.6827 146.34 103.805 139.387 110.466 134.213C117.126 129.2 127.36 121.923 133.208 118.043C139.057 114 145.392 108.987 147.504 106.723C149.453 104.46 152.702 100.094 154.652 97.0213C156.764 93.4638 158.226 88.6128 158.226 84.0851C158.226 79.7192 156.926 74.5447 154.977 71.1489C153.19 68.0766 149.616 64.5191 146.854 63.2255C144.255 61.9319 139.219 60.6383 135.645 60.3149C131.422 59.8298 127.035 60.6383 123.462 62.5787C120.05 64.3575 116.476 68.0766 114.364 71.9575C112.09 76.3234 110.628 83.2766 109.816 93.7872C109.166 102.196 107.541 113.515 106.242 118.851C104.942 124.187 101.368 132.111 98.4443 136.638C95.3578 141.004 89.997 146.664 86.5855 149.089C83.1741 151.515 77.4884 154.749 73.9145 156.366C69.2034 158.306 63.1928 159.115 52.7961 159.115C41.0997 159.115 36.5511 158.306 30.0531 155.396C25.667 153.455 19.169 149.413 15.5951 146.664C12.1837 143.753 7.47267 137.447 5.19838 132.596C2.27429 126.613 0.812247 119.983 0.324898 112.383C-0.16245 104.621 0.324898 98.4766 2.27429 92.9787C3.57389 88.4511 7.14777 81.983 10.0719 78.5872C12.996 75.0298 24.8548 65.8128 36.5511 57.7277C48.2475 49.8043 60.7561 40.2638 64.4924 36.5447C66.8925 34.2595 68.8904 31.9743 69.9263 30.4178C70.6577 29.3189 70.055 28.3531 68.7433 28.206C64.9218 27.7776 55.8795 27.4894 45.4858 27.4894C25.667 27.4894 19.9813 27.0043 15.1078 24.5787C11.8588 23.1234 6.98532 18.9191 4.54858 15.3617Z" fill="white" fill-opacity="0.25"/>
</svg>
