<svg width="46" height="46" viewBox="0 0 46 46" fill="none" xmlns="http://www.w3.org/2000/svg">
<path d="M1.10124 3.71915C0.471958 2.85787 0 1.6834 0 1.09617V0H27.1376V1.44851C27.1376 2.27064 26.7836 4.14979 26.3117 5.6766C25.5644 8.06468 25.1318 8.73021 22.8506 10.9617C21.4348 12.3711 17.9737 15.1115 15.1813 17.0298C12.3889 18.9872 9.59648 21.1404 9.00654 21.806C8.37726 22.5106 7.70865 23.7634 7.47267 24.5464C7.27602 25.3685 7.19736 26.6604 7.31535 27.4043C7.47267 28.1481 7.9053 29.2443 8.2986 29.8315C8.73123 30.4579 9.55715 31.2017 10.2258 31.5149C10.8944 31.8281 12.1529 32.1021 13.0968 32.1021C14.0014 32.1021 15.378 31.7889 16.1252 31.3974C16.8725 31.0451 17.8164 30.1055 18.2491 29.3617C18.839 28.3047 19.075 26.8953 19.2716 23.0979C19.4683 19.0655 19.7043 17.8128 20.4909 16.0511C21.0415 14.8766 22.1034 13.1932 22.89 12.3319C23.6372 11.4706 25.2498 10.2962 26.3903 9.70894C27.5702 9.1217 29.4187 8.45617 30.4806 8.26042C31.7392 7.98638 33.2731 7.98638 34.8069 8.26042C36.1048 8.45617 38.2286 9.1217 39.4872 9.70894C40.7851 10.2962 42.4369 11.4706 43.1842 12.3319C43.9708 13.1932 44.954 14.6809 45.3473 15.6596C45.9766 17.0298 46.0946 18.0085 45.9373 20.1617C45.8193 21.8451 45.3867 23.7243 44.7967 25.0162C44.1674 26.4647 43.0662 27.8349 41.4537 29.3226C40.1164 30.5362 37.4027 32.4936 35.3969 33.6681C33.4304 34.8426 31.1099 36.5651 30.2447 37.4655C29.4187 38.4051 28.7895 39.3055 28.9074 39.5404C29.0254 39.7753 31.5425 39.9319 35.2002 39.9319C40.3524 39.9319 41.5323 40.0494 42.7909 40.6757C43.5775 41.0672 44.6001 41.8894 44.9934 42.5157C45.426 43.1421 45.7799 44.16 45.8193 46H18.6817L18.721 44.2383C18.7603 43.2204 19.2323 41.4979 19.9009 40.1277C20.4909 38.8357 21.6314 37.074 22.418 36.2519C23.1653 35.4298 25.1318 33.7464 26.7443 32.4936C28.3568 31.28 30.8346 29.5183 32.2505 28.5787C33.6664 27.6 35.2002 26.3864 35.7115 25.8383C36.1835 25.2902 36.9701 24.2332 37.442 23.4894C37.9533 22.6281 38.3073 21.4536 38.3073 20.3574C38.3073 19.3004 37.9926 18.0477 37.5207 17.2255C37.0881 16.4817 36.2228 15.6204 35.5542 15.3072C34.9249 14.994 33.7057 14.6809 32.8404 14.6026C31.8179 14.4851 30.7559 14.6809 29.8907 15.1506C29.0648 15.5813 28.1995 16.4817 27.6882 17.4213C27.1376 18.4783 26.7836 20.1617 26.587 22.7064C26.4297 24.7421 26.0364 27.4826 25.7217 28.7745C25.4071 30.0664 24.5418 31.9847 23.8339 33.0809C23.0866 34.1379 21.7887 35.5081 20.9628 36.0953C20.1369 36.6826 18.7603 37.4655 17.8951 37.857C16.7545 38.3268 15.2993 38.5226 12.7822 38.5226C9.95045 38.5226 8.84922 38.3268 7.27602 37.6221C6.21412 37.1523 4.64092 36.1736 3.77567 35.5081C2.94974 34.8034 1.80917 33.2766 1.25856 32.1021C0.550618 30.6536 0.196649 29.0485 0.0786596 27.2085C-0.0393299 25.3294 0.0786596 23.8417 0.550618 22.5106C0.865257 21.4145 1.73051 19.8485 2.43845 19.0264C3.14639 18.1651 6.01747 15.9336 8.84922 13.9762C11.681 12.0579 14.7094 9.74808 15.614 8.84766C16.5185 7.98638 17.1871 7.12511 17.1085 6.92936C16.9905 6.77277 14.2767 6.65532 11.0124 6.65532C6.21412 6.65532 4.83757 6.53787 3.65768 5.95064C2.87108 5.5983 1.69118 4.58043 1.10124 3.71915Z" fill="#032EA7"/>
</svg>
